<svg xmlns="http://www.w3.org/2000/svg" viewBox="0 0 130.46 31.75"><defs><style>.cls-1{fill:#fff;}.cls-2{fill:#231f20;}</style></defs><title>logo-pinehills</title><g id="레이어_2" data-name="레이어 2"><g id="Layer_1" data-name="Layer 1"><path d="M16.08,3.35s-1-2.9-5.32-3.26c0,0-7.63.3-9.68-.06A1.57,1.57,0,0,0,.36.1a.57.57,0,0,0-.3.77s.19.36,1.14.43A2.09,2.09,0,0,1,3,3a7.54,7.54,0,0,1,.08,1.22V15s0,1.79-1.27,2.36c0,0-1,.36-1.19.75,0,0-.31.75.67.7,0,0,5.57-.21,7.15,0,0,0,.85.16,1-.28a.59.59,0,0,0-.29-.79,9.58,9.58,0,0,0-.93-.28,2.14,2.14,0,0,1-1.58-2.12V3.28a1.92,1.92,0,0,1,1.5-2.06S11,.86,12.19,3.33c0,0,1.42,2.64-.16,4.84a3,3,0,0,1-2,1A4.52,4.52,0,0,1,8.3,9.1s-.64-.25-.83.29c0,0-.12.46.54.75a6.58,6.58,0,0,0,4.28.18A5.81,5.81,0,0,0,16.1,7.08a5.71,5.71,0,0,0,0-3.73"/><path class="cls-1" d="M10.63,1.07a4.49,4.49,0,0,1,3.55,4.2,4.07,4.07,0,0,1-2.72,4.12V9.13A3.93,3.93,0,0,0,13.3,5.71a5.27,5.27,0,0,0-2.67-4.49Z"/><path d="M16.59,3.56s0-.45.7-.42a27.88,27.88,0,0,0,6,0s1-.28,1,.39a.46.46,0,0,1-.32.44s-1.53.24-1.57,1.48V16.23s0,1.32,1.75,1.47c0,0,1,0,1,.63,0,0,.1.44-.52.47a43.33,43.33,0,0,0-6.3,0s-.87.1-.93-.46c0,0-.07-.45.67-.63a1.8,1.8,0,0,0,1.37-1.7V5.71s.06-1.52-2.17-1.58c0,0-.61,0-.6-.57"/><path d="M84.2,3.56s0-.42.7-.42a27.9,27.9,0,0,0,6,0s1-.3,1,.39c0,0,.06.38-.41.48,0,0-1.45.35-1.48,1.44V16.23s0,1.26,1.76,1.47c0,0,1,0,1,.63,0,0,.06.4-.52.47a45.06,45.06,0,0,0-6.48.06s-.76.08-.75-.48c0,0-.09-.42.67-.63A1.92,1.92,0,0,0,87,16.05V5.71s.08-1.61-2.18-1.58c0,0-.62,0-.59-.57"/><path d="M28.21,3.15a7.64,7.64,0,0,1-2.44.07s-.74-.33-.91.19.27.7.87.73c0,0,1.57.12,1.62,2.31v7.07s-.14,3.83-1.65,4.23c0,0-.69.23-.57.77,0,0,.1.35.68.28a38.4,38.4,0,0,1,5,0s.58.09.63-.38c0,0,.12-.48-.5-.57a3.55,3.55,0,0,1-1.61-.46,3.54,3.54,0,0,1-.81-2.81V7.11s.06-.38.39-.23L40.17,19s.6.48.66-.39l.22-12.45a2.07,2.07,0,0,1,1.34-2s.72-.14.58-.61a.35.35,0,0,0-.42-.4,23.8,23.8,0,0,1-5.09,0s-.71-.19-.81.4c0,0-.07.48.78.52a2.25,2.25,0,0,1,2.19,2.11v7.26s0,.36-.15.44c0,0-.28.12-.75-.42L30.12,4a2,2,0,0,0-1.91-.81"/><path class="cls-1" d="M38.58,3.88s1.47-.24,1.73.82A1.47,1.47,0,0,1,40,6a3.34,3.34,0,0,0-.42-1.29A2.36,2.36,0,0,0,38.76,4s-.24-.11-.18-.11"/><path class="cls-1" d="M26.85,4a4.06,4.06,0,0,1,2.3,1.43L39.93,17.15s.23.35,0,.57a.4.4,0,0,1-.42,0L28.08,5.2a8.44,8.44,0,0,0-1.14-.92S26.57,4,26.85,4"/><path class="cls-1" d="M27.57,15.18a3.39,3.39,0,0,1,.13,1.95,1.79,1.79,0,0,1-1.46,1.18,2.74,2.74,0,0,0,1.11-1.38,5.06,5.06,0,0,0,.22-1.75"/><path d="M42.91,3.51S43,3,44,3.06a49.54,49.54,0,0,0,9.58,0s2-.29,2,.57V6.41a.39.39,0,0,1-.36.32.5.5,0,0,1-.51-.32s-.07-1.68-1.37-1.92a11.75,11.75,0,0,0-2.42-.24s-2.22-.13-2.21.81V9a.76.76,0,0,0,.8.79h1.69a1.69,1.69,0,0,0,1.58-1.26s.08-.67.61-.71a.48.48,0,0,1,.57.42,27.71,27.71,0,0,0,0,4.36s0,.58-.4.65c0,0-.62,0-.6-.78a1.61,1.61,0,0,0-1.53-1.54,6.47,6.47,0,0,0-2.38,0s-.4.15-.39.5v5.17s0,.73.92.79l2.16,0s3-.13,3.9-2.25c0,0,.22-.66.7-.57,0,0,.56.08.19,1.19,0,0-.87,2.82-3.07,2.92,0,0-6.43-.1-8.49,0,0,0-1,.17-1.22-.23,0,0-.36-.56.73-1A1.78,1.78,0,0,0,45.7,16V5.84A1.71,1.71,0,0,0,44,4.14s-1.07,0-1.05-.63"/><path class="cls-1" d="M52.4,3.92A3.57,3.57,0,0,1,54.55,4s.65.39.42,1.67A2.71,2.71,0,0,0,52.4,3.92"/><path class="cls-1" d="M51.7,18a5.94,5.94,0,0,0,2.43-.64A4.13,4.13,0,0,0,55.67,16a1.87,1.87,0,0,1-1.17,1.73s-1.76.89-2.8.21"/><path class="cls-1" d="M52.86,11V9.54s-.17-.1-.27.15a.74.74,0,0,1-.65.5s-.3,0-.32.16c0,0,0,.2.26.21,0,0,.54,0,.75.31,0,0,.1.21.23.1"/><path d="M61.67.63s-.05-.7,1.17-.6a28.37,28.37,0,0,0,7,0s1-.22,1,.5c0,0,.08.68-.85.75,0,0-1.43.21-1.51,2.18v3.7s-.05.81.7.86H77.3s.8,0,.77-.7V3.07a1.92,1.92,0,0,0-1.92-1.81s-1.26.11-1.29-.6c0,0-.1-.73.91-.63A32.7,32.7,0,0,0,83,.06s1-.24,1,.52c0,0,.1.61-.87.76A1.82,1.82,0,0,0,81.65,3V15.58a2.09,2.09,0,0,0,2,2s1,.05,1,.76c0,0,.06.57-.63.54a46.54,46.54,0,0,0-7.51,0s-1,.19-.92-.58c0,0,0-.49.85-.71a2.08,2.08,0,0,0,1.65-1.92V10a.56.56,0,0,0-.69-.52H69.16a.81.81,0,0,0-.75.8V14.9s0,2.47,2,2.59c0,0,1.35.14,1.41.81,0,0,0,.57-.76.57a73.6,73.6,0,0,0-7.53-.07s-1.2.18-1.14-.45a1.11,1.11,0,0,1,1-.83s1.49-.29,1.56-2.48V4.13s0-1.94-.7-2.41a2.53,2.53,0,0,0-1.55-.46s-1.07,0-1-.63"/><path class="cls-1" d="M77.19,1a2.28,2.28,0,0,1,2.1,2.07V15.33s-.1,2.17-1.79,2.42a4.7,4.7,0,0,0,1.06-2.82V3.25A2.66,2.66,0,0,0,77.19,1"/><path class="cls-1" d="M64.08,1a2.28,2.28,0,0,1,2.1,2.07V15.33s-.11,2.17-1.79,2.42a4.68,4.68,0,0,0,1.07-2.82V3.25A2.68,2.68,0,0,0,64.08,1"/><path class="cls-1" d="M2.32,1A2.27,2.27,0,0,1,4.41,3.09V15.33s-.1,2.17-1.78,2.42a4.7,4.7,0,0,0,1.06-2.82V3.25A2.69,2.69,0,0,0,2.32,1"/><path d="M92.32,3.64s0-.58.81-.5a38.16,38.16,0,0,0,5.77.06s1-.31,1.06.33c0,0,.15.53-.67.62,0,0-1.42.28-1.3,1.46V16.38s0,1,.83,1.09h2.23A5.28,5.28,0,0,0,105,15.19s.26-.62.73-.52c0,0,.57.15.16,1.25,0,0-.61,2-1.92,2.56a4.55,4.55,0,0,1-2,.34,75,75,0,0,0-7.59-.05s-1.29.29-1.4-.44c0,0-.1-.5.61-.54A1.59,1.59,0,0,0,95,16.25V5.66a1.82,1.82,0,0,0-1.81-1.53s-.9.11-.86-.49"/><path class="cls-1" d="M94.42,4A1.92,1.92,0,0,1,96.1,5.66V15.92s-.12,1.76-1.47,2a4.54,4.54,0,0,0,.88-2.23V5.91a2.26,2.26,0,0,0-1.09-2"/><path class="cls-1" d="M105.05,16a2.42,2.42,0,0,1-1.23,1.66,3.6,3.6,0,0,1-2.71.41l0-.23s2.72-.39,4-1.84"/><path d="M105.36,3.64s0-.58.8-.5a38.3,38.3,0,0,0,5.78.06s1-.31,1.06.33c0,0,.15.53-.67.62,0,0-1.42.28-1.3,1.46V16.38s0,1,.83,1.09h2.23A5.3,5.3,0,0,0,118,15.19s.26-.62.73-.52c0,0,.57.15.16,1.25,0,0-.61,2-1.92,2.56a4.55,4.55,0,0,1-2,.34,75,75,0,0,0-7.59-.05s-1.29.29-1.4-.44c0,0-.1-.5.61-.54A1.59,1.59,0,0,0,108,16.25V5.66a1.81,1.81,0,0,0-1.81-1.53s-.89.11-.85-.49"/><path class="cls-1" d="M107.45,4a1.93,1.93,0,0,1,1.69,1.71V15.92a2.06,2.06,0,0,1-1.48,2,3.23,3.23,0,0,0,.88-2.23V5.91a2.23,2.23,0,0,0-1.09-2"/><path class="cls-1" d="M86.38,4a1.92,1.92,0,0,1,1.68,1.71V15.92a2.06,2.06,0,0,1-1.47,2,3.23,3.23,0,0,0,.88-2.23V5.91a2.26,2.26,0,0,0-1.09-2"/><path class="cls-1" d="M45,4a1.93,1.93,0,0,1,1.69,1.71V15.92a2.06,2.06,0,0,1-1.48,2,3.23,3.23,0,0,0,.88-2.23V5.91A2.26,2.26,0,0,0,45,4"/><path class="cls-1" d="M18.79,4a1.94,1.94,0,0,1,1.69,1.71V15.92a2.08,2.08,0,0,1-1.48,2,3.28,3.28,0,0,0,.88-2.23V5.91a2.26,2.26,0,0,0-1.09-2"/><path class="cls-1" d="M118.12,15.79a2.72,2.72,0,0,1-1.22,2,4.16,4.16,0,0,1-2.76.29l0-.23s2.73-.1,4-2"/><path d="M129.73,3.71a.38.38,0,0,0-.47-.35.9.9,0,0,0-.46.26,1.09,1.09,0,0,1-1.09,0A7.38,7.38,0,0,0,123.23,3a4.66,4.66,0,0,0-3.36,4,3.94,3.94,0,0,0,2.46,3.91l3.34,1.4s2.61.87,2.82,2.36a2.88,2.88,0,0,1-1.73,3,4,4,0,0,1-3.86-.64,6.12,6.12,0,0,1-2-2.49s-.32-.7-.42-.9c0,0-.19-.57-.59-.4a.64.64,0,0,0-.29.78s.76,3,.78,3.22a1.15,1.15,0,0,0,.65.9s2.11.58,2.51.65c0,0,3.44.84,5.44-1.22a5.24,5.24,0,0,0,1.45-2.9,4.65,4.65,0,0,0-1.3-3.91,9.92,9.92,0,0,0-2.79-1.53,28.27,28.27,0,0,1-3-1.14s-1.66-.72-1.46-2.25c0,0,.22-2,2.9-1.95a4.92,4.92,0,0,1,3.66,2.31A9.07,9.07,0,0,1,129,7.44s.11.6.59.6c0,0,.37,0,.39-.54a32.61,32.61,0,0,1-.29-3.79"/><path class="cls-1" d="M129,6.38a2.48,2.48,0,0,0-.61-1.86,2.16,2.16,0,0,0-2-.65A5.6,5.6,0,0,1,129,6.38"/><path class="cls-1" d="M121.21,4.7s-1.4,1.06-.75,3.49c0,0,.32,1.93,3.8,3.09,0,0,3.22,1.06,4.28,2.44a3.44,3.44,0,0,1,.52,2.35,2.26,2.26,0,0,0,.33-2A3.54,3.54,0,0,0,127.55,12s-2-.94-2.85-1.24a10.92,10.92,0,0,1-3.1-2,2.88,2.88,0,0,1-.8-1.78,5.18,5.18,0,0,1,.41-2.24"/><path class="cls-1" d="M120,13.59l.1,0s1.5,3.46,1.5,3.58l-.13.58s-.63-.1-.65-.39Z"/><path class="cls-2" d="M36.15,24a5.61,5.61,0,0,0,.75.18.54.54,0,0,0,.35-.09.7.7,0,0,0,.17-.28h.25l.09,2.42h-.27A4.17,4.17,0,0,0,36.76,25,2.31,2.31,0,0,0,35,24.29a2.64,2.64,0,0,0-1.94.84,3.8,3.8,0,0,0-.84,2.76,3.52,3.52,0,0,0,.83,2.48,2.75,2.75,0,0,0,2.07.89,3.67,3.67,0,0,0,1-.16,1.78,1.78,0,0,0,.51-.23.38.38,0,0,0,.1-.29V28.75a1.24,1.24,0,0,0-.18-.83,1.54,1.54,0,0,0-.82-.21V27.5h2.93v.21a1.23,1.23,0,0,0-.58.14.9.9,0,0,0-.24.74v2.27c0,.13-.32.31-1,.54a6,6,0,0,1-1.9.34,4.22,4.22,0,0,1-2.84-1,3.61,3.61,0,0,1-1.27-2.91,4,4,0,0,1,1-2.74,3.73,3.73,0,0,1,3-1.27,4.47,4.47,0,0,1,1.31.19"/><path class="cls-2" d="M40,26.53a2.88,2.88,0,0,1,3.9,0,3,3,0,0,1,.86,2.21A2.89,2.89,0,0,1,43.88,31,2.73,2.73,0,0,1,42,31.7a2.65,2.65,0,0,1-2-.82,3.25,3.25,0,0,1,0-4.35m.64,4.21a1.61,1.61,0,0,0,1.31.65,1.65,1.65,0,0,0,1.3-.63,3.07,3.07,0,0,0,.54-2,3,3,0,0,0-.55-2,1.64,1.64,0,0,0-2.6,0,3.16,3.16,0,0,0-.53,2,3.15,3.15,0,0,0,.53,2"/><path class="cls-2" d="M45.19,31.42a1.24,1.24,0,0,0,.61-.17.86.86,0,0,0,.14-.6V26.82a.88.88,0,0,0-.14-.59,1,1,0,0,0-.61-.18v-.16H47.6v.16a1.18,1.18,0,0,0-.63.16.75.75,0,0,0-.16.56v4.12a.46.46,0,0,0,0,.23c0,.06.1.09.21.1l.2,0h.41a4.13,4.13,0,0,0,1.55-.19,1.9,1.9,0,0,0,.78-1h.21l-.42,1.49H45.19Z"/><path class="cls-2" d="M50.43,31.42a1.15,1.15,0,0,0,.63-.19,1.22,1.22,0,0,0,.12-.69V26.82a.88.88,0,0,0-.14-.59.93.93,0,0,0-.61-.18v-.16H55l0,1.23h-.24a1,1,0,0,0-.33-.74,1.92,1.92,0,0,0-1-.16H52.32a.29.29,0,0,0-.22.06.41.41,0,0,0-.05.23v1.93h1.24a1,1,0,0,0,.7-.17,1.33,1.33,0,0,0,.24-.66h.21v2h-.21a1.42,1.42,0,0,0-.24-.66,1,1,0,0,0-.7-.16H52.05v1.88a.83.83,0,0,0,.15.6,1.05,1.05,0,0,0,.63.17v.16h-2.4Z"/><path class="cls-2" d="M60.22,27.5a4.58,4.58,0,0,0-1.35,1.08A2.1,2.1,0,0,0,58.39,30a1.67,1.67,0,0,0,.54,1.31,2.09,2.09,0,0,0,1.44.48,3.54,3.54,0,0,0,1.5-.33,4.17,4.17,0,0,0,1-.69,6.75,6.75,0,0,0,.87.7,2.06,2.06,0,0,0,1.08.33,1.88,1.88,0,0,0,.46-.06,1.56,1.56,0,0,0,.68-.37,1.93,1.93,0,0,0,.39-.44,1.37,1.37,0,0,0,.24-.42l-.17-.13a2.42,2.42,0,0,1-.43.43,1.07,1.07,0,0,1-.63.18,2,2,0,0,1-1.26-.53,6.32,6.32,0,0,1-.51-.54q.42-.54.63-.84c.14-.21.32-.5.53-.89l.3-.53a1.24,1.24,0,0,1,.52-.56,1.84,1.84,0,0,1,.56-.13v-.23H63.66v.23a1.55,1.55,0,0,1,.51.1.45.45,0,0,1,.23.44,2.33,2.33,0,0,1-.23.83,5.54,5.54,0,0,1-.84,1.25c-.37-.48-.63-.85-.79-1.1s-.4-.67-.73-1.28A5,5,0,0,0,63,26.41a1.52,1.52,0,0,0,.56-1.22,1.28,1.28,0,0,0-.44-1A1.72,1.72,0,0,0,62,23.79a1.67,1.67,0,0,0-1.26.54,1.92,1.92,0,0,0-.49,1.35,2.19,2.19,0,0,0,0,.36c0,.12,0,.24.07.36a4.1,4.1,0,0,0,.14.43,3,3,0,0,0,.17.41ZM61,31.12a1.41,1.41,0,0,1-1.08-.47,1.63,1.63,0,0,1-.41-1.1,1.73,1.73,0,0,1,.47-1.22,3.63,3.63,0,0,1,.9-.68c.43.77.73,1.31.93,1.61s.47.69.83,1.15a3,3,0,0,1-.87.54,2.35,2.35,0,0,1-.77.17m.67-4.32A8.23,8.23,0,0,1,61.3,26a2.84,2.84,0,0,1-.12-.77,1.09,1.09,0,0,1,.23-.74.84.84,0,0,1,.66-.28.87.87,0,0,1,.65.28,1,1,0,0,1,.26.71,1.49,1.49,0,0,1-.51,1.08,3.77,3.77,0,0,1-.84.57"/><path class="cls-2" d="M69.9,31.36a1.43,1.43,0,0,0,.84-.24,1.58,1.58,0,0,0,.17-.92v-5a1.16,1.16,0,0,0-.19-.81,1.46,1.46,0,0,0-.82-.24V24h3.18v.21a1.49,1.49,0,0,0-.82.24,1.21,1.21,0,0,0-.19.81v2.24h3.5V25.21a1.16,1.16,0,0,0-.19-.81,1.43,1.43,0,0,0-.82-.24V24h3.18v.21a1.46,1.46,0,0,0-.82.24,1.21,1.21,0,0,0-.19.81v5.11a1.19,1.19,0,0,0,.19.81,1.4,1.4,0,0,0,.82.23v.22H74.56v-.22a1.43,1.43,0,0,0,.84-.24,1.58,1.58,0,0,0,.17-.92V28h-3.5v2.36a1.25,1.25,0,0,0,.19.82,1.44,1.44,0,0,0,.82.22v.22H69.9Z"/><path class="cls-2" d="M79.14,26.53a2.88,2.88,0,0,1,3.9,0A3.24,3.24,0,0,1,83,31a2.73,2.73,0,0,1-1.92.74,2.65,2.65,0,0,1-2-.82,3.25,3.25,0,0,1,0-4.35m.64,4.21a1.63,1.63,0,0,0,1.31.65,1.65,1.65,0,0,0,1.3-.63,3.07,3.07,0,0,0,.54-2,3,3,0,0,0-.55-2,1.65,1.65,0,0,0-1.29-.63,1.63,1.63,0,0,0-1.3.65,3.09,3.09,0,0,0-.54,2,3.15,3.15,0,0,0,.53,2"/><path class="cls-2" d="M84.39,25.89h4.86l0,1.46h-.21a1.86,1.86,0,0,0-.38-.9,1.67,1.67,0,0,0-1-.2h-.46v4.4c0,.33,0,.53.16.61a1.35,1.35,0,0,0,.68.16v.16H85.57v-.16a1.25,1.25,0,0,0,.69-.18,1.15,1.15,0,0,0,.13-.7V26.25h-.48a1.68,1.68,0,0,0-1,.2,1.45,1.45,0,0,0-.39.9h-.21Z"/><path class="cls-2" d="M89.56,31.58h4.65l.38-1.45h-.23a1.82,1.82,0,0,1-.75.92,3.26,3.26,0,0,1-1.3.19,5.72,5.72,0,0,1-1,0c-.11,0-.16-.14-.16-.31V28.77h1.32a1,1,0,0,1,.7.16,1.42,1.42,0,0,1,.24.66h.21v-2h-.21a1.33,1.33,0,0,1-.24.66c-.1.11-.33.16-.7.16H91.19V26.51a.43.43,0,0,1,0-.23s.11-.06.23-.06h1.18a1.81,1.81,0,0,1,1,.17,1.18,1.18,0,0,1,.33.73h.22l0-1.23H89.56v.16a1,1,0,0,1,.61.17.88.88,0,0,1,.14.6v3.83c0,.32,0,.52-.14.6a1.17,1.17,0,0,1-.61.17Z"/><path class="cls-2" d="M94.8,31.42a1.25,1.25,0,0,0,.62-.17c.09-.08.13-.28.13-.6V26.82a.89.89,0,0,0-.13-.59,1,1,0,0,0-.62-.18v-.16h2.42v.16a1.18,1.18,0,0,0-.63.16c-.11.09-.16.27-.16.56v4.12a.37.37,0,0,0,0,.23c0,.06.1.09.21.1l.2,0h.4a4.06,4.06,0,0,0,1.55-.19,1.9,1.9,0,0,0,.78-1h.22l-.42,1.49H94.8Z"/></g></g></svg>