<svg xmlns="http://www.w3.org/2000/svg" viewBox="0 0 225.29 43.57"><title>logo-pinebeach</title><g id="레이어_2" data-name="레이어 2"><g id="레이어_1-2" data-name="레이어 1"><path d="M4.27,39.67H7.39s0,.15,0,.24a3.47,3.47,0,0,1-3.53,3.66,3.66,3.66,0,0,1,0-7.32,3.31,3.31,0,0,1,3.36,2.48H6.45a2.61,2.61,0,0,0-2.58-1.8,2.76,2.76,0,0,0-2.78,3,2.76,2.76,0,0,0,2.78,3,2.7,2.7,0,0,0,2.75-2.55H4.27Z"/><path d="M30.42,43.57A3.66,3.66,0,1,1,34,39.91a3.51,3.51,0,0,1-3.58,3.66m0-.68a3,3,0,1,0-2.83-3,2.8,2.8,0,0,0,2.83,3"/><polygon points="58.17 43.42 53.93 43.42 53.93 36.4 54.65 36.4 54.65 42.74 58.17 42.74 58.17 43.42"/><polygon points="77.69 43.42 77.69 36.4 82.16 36.4 82.16 37.08 78.41 37.08 78.41 39.51 81.95 39.51 81.95 40.19 78.41 40.19 78.41 43.42 77.69 43.42"/><polygon points="128.28 43.42 124.04 43.42 124.04 36.4 124.76 36.4 124.76 42.74 128.28 42.74 128.28 43.42"/><rect x="147.8" y="36.4" width="0.72" height="7.02"/><polygon points="169.67 43.42 168.94 43.42 168.94 36.4 169.71 36.4 173.8 42.27 173.8 36.4 174.52 36.4 174.52 43.42 173.76 43.42 169.67 37.55 169.67 43.42"/><path d="M199.94,43.42l-2.75-3.58-1.53,1.5v2.08h-.73v-7h.73v4s.7-.69,4-4h1l-3,2.92,3.17,4.1Z"/><path d="M224.22,41.59c0-2.23-4.17-.55-4.17-3.37,0-1,.83-2,2.41-2a2.22,2.22,0,0,1,2.42,2.27h-.7a1.58,1.58,0,0,0-1.71-1.62c-1.06,0-1.69.51-1.69,1.29,0,2.05,4.17.52,4.17,3.35,0,1.22-1.06,2-2.63,2a2.31,2.31,0,0,1-2.62-2.27h.71a1.71,1.71,0,0,0,1.93,1.61c1.15,0,1.88-.45,1.88-1.31"/><path d="M2.28,22.67H0V.47H8.63c5.16,0,7.16,2.84,7.16,6.41s-2.06,6.44-7.16,6.44H2.28ZM8.73,11.13c3.18,0,4.68-1.59,4.68-4.25s-1.5-4.22-4.68-4.22H2.28v8.47Z"/><rect x="25.14" y="0.47" width="2.28" height="22.21"/><polygon points="41.06 22.67 38.78 22.67 38.78 0.47 41.19 0.47 54.13 19.05 54.13 0.47 56.42 0.47 56.42 22.67 54.01 22.67 41.06 4.13 41.06 22.67"/><polygon points="82.66 22.67 67.74 22.67 67.74 0.47 82.66 0.47 82.66 2.63 70.02 2.63 70.02 10.32 82 10.32 82 12.48 70.02 12.48 70.02 20.52 82.66 20.52 82.66 22.67"/><path d="M102,22.67V.47h8.23c5.1,0,7.29,2.47,7.29,5.91a5.07,5.07,0,0,1-3.47,5,5.23,5.23,0,0,1,4,5.2c0,3.94-2.75,6.06-7.57,6.06ZM104.3,2.59v7.76h6c2.94,0,4.91-1,4.91-3.88,0-2.56-1.69-3.88-4.91-3.88Zm0,9.89v8.07h6.22c3.16,0,5.22-1.19,5.22-4s-2.06-4-5.19-4Z"/><polygon points="143.01 22.67 128.1 22.67 128.1 0.47 143.01 0.47 143.01 2.63 130.38 2.63 130.38 10.32 142.36 10.32 142.36 12.48 130.38 12.48 130.38 20.52 143.01 20.52 143.01 22.67"/><path d="M150,22.67,159.09.47h2.47l9.16,22.2h-2.53l-2.1-5.19H154.52l-2.12,5.19ZM160.28,3.25l-4.94,12.11h9.91L160.34,3.25Z"/><path d="M187.77,0c5.44,0,9.44,3.28,10.47,8.29h-2.4a7.88,7.88,0,0,0-8.07-6.13c-5.19,0-8.6,3.81-8.6,9.41s3.41,9.42,8.6,9.42a7.88,7.88,0,0,0,8.07-6.14h2.4c-1,5-5,8.29-10.47,8.29-6.7,0-11-5-11-11.57S181.07,0,187.77,0"/><polygon points="225.29 22.67 223.01 22.67 223.01 12.48 210.03 12.48 210.03 22.67 207.75 22.67 207.75 0.47 210.03 0.47 210.03 10.32 223.01 10.32 223.01 0.47 225.29 0.47 225.29 22.67"/></g></g></svg>