<svg xmlns="http://www.w3.org/2000/svg" viewBox="0 0 566.17 64.5"><defs><style>.cls-1{fill:#231916;}</style></defs><title>logo-nscity</title><g id="레이어_2" data-name="레이어 2"><g id="레이어_1-2" data-name="레이어 1"><g id="_그룹_" data-name="&lt;그룹&gt;"><path id="_패스_" data-name="&lt;패스&gt;" class="cls-1" d="M21.55,64.5A21.56,21.56,0,1,1,31,23.56l.6.3-.54.4a23.23,23.23,0,0,0-9.32,17c0,.66-.07,1.21-.07,1.74A23,23,0,0,0,31,61.63l.54.41-.6.29A21.68,21.68,0,0,1,21.55,64.5Z"/><path id="_패스_2" data-name="&lt;패스&gt;" class="cls-1" d="M44.92,64.5A21.55,21.55,0,0,1,23.38,43.28v-.63l.58.25A23.34,23.34,0,0,0,44.31,42,23.13,23.13,0,0,0,56.22,25.27l.1-.63.53.35A21.55,21.55,0,0,1,44.92,64.5Z"/><path id="_패스_3" data-name="&lt;패스&gt;" class="cls-1" d="M44.53,39.24A23.29,23.29,0,0,0,12.26,21.6l-.58.25v-.64a21.55,21.55,0,0,1,43.1.34c0,.49,0,1-.07,1.61a21.36,21.36,0,0,1-9.56,16.35l-.53.35Z"/></g><g id="_그룹_2" data-name="&lt;그룹&gt;"><path id="_패스_4" data-name="&lt;패스&gt;" class="cls-1" d="M141,19.54c0,3.42-1.46,5.08-4.47,5.09s-4.46-1.67-4.46-5.09V10.42h-3.76v9.24c0,3.23.94,5.63,2.71,7a10.57,10.57,0,0,0,11,0c1.78-1.32,2.72-3.72,2.72-6.95V10.42H141Z"/><path id="_패스_5" data-name="&lt;패스&gt;" class="cls-1" d="M94.07,24.59a15.76,15.76,0,0,1-4.78-.83s-1.76-.7-2.26.83l-.61,1.88A17.56,17.56,0,0,0,94,28.12c5.93,0,9.08-1.88,9.08-5.91,0-4.76-4.49-5.25-8.53-5.48-2.14-.13-4.09-.21-4.09-1.66,0-1.25,1.38-1.85,4.08-1.85a16.25,16.25,0,0,1,4.36.52s1.79.65,2.27-.9c0-.08.55-1.8.57-1.87a22.53,22.53,0,0,0-7.27-1.26c-5.7,0-8,3.31-8,5.58,0,3.79,3.19,5,6.83,5.2s5.79.16,5.79,2C99.1,24,97.55,24.59,94.07,24.59Z"/><path id="_컴파운드_패스_" data-name="&lt;컴파운드 패스&gt;" class="cls-1" d="M115.19,9.7a10.33,10.33,0,0,0-7.48,2.8,8.84,8.84,0,0,0-2.46,6.42,8.81,8.81,0,0,0,2.46,6.41,11.39,11.39,0,0,0,15,0,8.81,8.81,0,0,0,2.46-6.41,8.84,8.84,0,0,0-2.46-6.42A10.35,10.35,0,0,0,115.19,9.7Zm0,14.9c-3.67,0-6-2.17-6-5.68s2.31-5.69,6-5.69,6,2.18,6,5.69S118.85,24.6,115.19,24.6Z"/><path id="_컴파운드_패스_2" data-name="&lt;컴파운드 패스&gt;" class="cls-1" d="M335.8,23.58l1.15,2.6a2,2,0,0,0,1.86,1.2h2.65l-7.58-17h-4.52l-7.58,17h2.65a2,2,0,0,0,1.86-1.2l1.15-2.6Zm-4.18-9.51,2.73,6.27h-5.46Z"/><path id="_패스_6" data-name="&lt;패스&gt;" class="cls-1" d="M292.58,13.2a13.07,13.07,0,0,1,4.25.84s1.77.81,2.38-.7l.68-1.91,0,0-.17-.08a16.93,16.93,0,0,0-7.16-1.63h-.07a10.28,10.28,0,0,0-7.38,2.74,8.94,8.94,0,0,0-2.45,6.48,9,9,0,0,0,2.45,6.48,10.32,10.32,0,0,0,7.38,2.74h.07a17,17,0,0,0,7.16-1.64l.17-.08,0,0-.68-1.91c-.61-1.5-2.38-.7-2.38-.7a12.81,12.81,0,0,1-4.25.84c-3.69,0-5.9-2.13-5.93-5.69S288.89,13.2,292.58,13.2Z"/><path id="_패스_7" data-name="&lt;패스&gt;" class="cls-1" d="M351.11,24.57a15.76,15.76,0,0,1-4.78-.83s-1.76-.7-2.26.83l-.61,1.88A17.54,17.54,0,0,0,351,28.1c5.94,0,9.09-1.88,9.09-5.91,0-4.76-4.49-5.25-8.53-5.48-2.14-.13-4.09-.21-4.09-1.66,0-1.25,1.38-1.85,4.08-1.85a16.25,16.25,0,0,1,4.36.52s1.79.65,2.26-.9c0-.08.56-1.8.58-1.87a22.8,22.8,0,0,0-7.27-1.26c-5.7,0-8,3.31-8,5.58,0,3.79,3.19,5,6.82,5.2s5.8.16,5.8,2C356.14,23.94,354.59,24.57,351.11,24.57Z"/><path id="_패스_8" data-name="&lt;패스&gt;" class="cls-1" d="M244,16.73c-2.14-.12-4.09-.21-4.09-1.65,0-1.26,1.37-1.86,4.08-1.86a16.3,16.3,0,0,1,4.36.52s1.79.65,2.26-.89c0-.08.56-1.8.58-1.88A22.85,22.85,0,0,0,244,9.71c-5.71,0-8,3.31-8,5.58,0,3.79,3.19,5,6.82,5.2s5.8.17,5.8,2c0,1.46-1.55,2.09-5,2.09a15.69,15.69,0,0,1-4.77-.83s-1.76-.69-2.26.83l-.62,1.88a17.62,17.62,0,0,0,7.57,1.65c5.94,0,9.09-1.88,9.09-5.91C252.57,17.45,248.08,17,244,16.73Z"/><path id="_컴파운드_패스_3" data-name="&lt;컴파운드 패스&gt;" class="cls-1" d="M311.25,9.68a10.33,10.33,0,0,0-7.48,2.8,8.84,8.84,0,0,0-2.46,6.42,8.81,8.81,0,0,0,2.46,6.41,11.39,11.39,0,0,0,15,0,8.81,8.81,0,0,0,2.46-6.41,8.84,8.84,0,0,0-2.46-6.42A10.35,10.35,0,0,0,311.25,9.68Zm0,14.9c-3.67,0-5.95-2.17-6-5.68s2.3-5.69,6-5.69,5.95,2.18,6,5.69S314.91,24.58,311.25,24.58Z"/><polygon id="_패스_9" data-name="&lt;패스&gt;" class="cls-1" points="155.12 27.41 158.88 27.41 158.88 13.66 165.68 13.66 165.68 10.42 148.31 10.42 148.31 13.66 155.12 13.66 155.12 27.41"/><polygon id="_패스_10" data-name="&lt;패스&gt;" class="cls-1" points="261.59 27.41 265.36 27.41 265.36 13.66 272.15 13.66 272.15 10.42 254.78 10.42 254.78 13.66 261.59 13.66 261.59 27.41"/><polygon id="_패스_11" data-name="&lt;패스&gt;" class="cls-1" points="379.56 10.41 362.2 10.41 362.2 13.64 369 13.64 369 27.39 372.77 27.39 372.77 13.64 379.56 13.64 379.56 10.41"/><polygon id="_패스_12" data-name="&lt;패스&gt;" class="cls-1" points="172.79 20.58 181.96 20.58 181.96 27.4 185.73 27.4 185.73 10.42 181.96 10.42 181.96 17.34 172.79 17.34 172.79 10.42 169.02 10.42 169.02 27.4 172.79 27.4 172.79 20.58"/><polygon id="_패스_13" data-name="&lt;패스&gt;" class="cls-1" points="232.53 24.17 221.52 24.17 221.52 20.54 230.83 20.54 230.83 17.3 221.52 17.3 221.52 13.67 232.53 13.67 232.53 10.42 217.75 10.42 217.75 27.41 232.53 27.41 232.53 24.17"/><path id="_패스_14" data-name="&lt;패스&gt;" class="cls-1" d="M211,12l-3.44,11.66L204,10.42h-3.9L196.6,23.61,193.16,12a2.15,2.15,0,0,0-2-1.53H188.9l4.84,15.49a2.1,2.1,0,0,0,2,1.49H199l3.14-12.08,3.14,12.08h3.19a2.1,2.1,0,0,0,2-1.49l4.84-15.49h-2.21A2.15,2.15,0,0,0,211,12Z"/></g><polygon id="_패스_15" data-name="&lt;패스&gt;" class="cls-1" points="255.51 40.32 255.51 43.95 264.82 43.95 264.82 47.18 255.51 47.18 255.51 50.81 266.52 50.81 266.52 54.05 251.75 54.05 251.75 37.09 266.52 37.09 266.52 40.32 255.51 40.32"/><g id="_그룹_3" data-name="&lt;그룹&gt;"><polygon id="_패스_16" data-name="&lt;패스&gt;" class="cls-1" points="131.7 54.05 135.46 54.05 135.46 40.3 142.26 40.3 142.26 37.06 124.89 37.06 124.89 40.3 131.7 40.3 131.7 54.05"/><polygon id="_패스_17" data-name="&lt;패스&gt;" class="cls-1" points="145.38 54.05 160.16 54.05 160.16 50.81 149.15 50.81 149.15 47.18 158.46 47.18 158.46 43.94 149.15 43.94 149.15 40.3 160.16 40.3 160.16 37.06 145.38 37.06 145.38 54.05"/><path id="_컴파운드_패스_4" data-name="&lt;컴파운드 패스&gt;" class="cls-1" d="M174.1,48.88h.35L176.8,53a2,2,0,0,0,1.77,1h2.78l-3.38-6c1.65-.89,2.56-2.55,2.61-5.09-.09-4.1-2.38-5.91-6.48-5.91h-9.76V48.88h0v5.17h3.77V48.88Zm-6-8.58h5.39c1.85,0,3,.74,3.11,2.67-.08,1.93-1.26,2.66-3.11,2.66h-5.39Z"/></g><path id="_패스_18" data-name="&lt;패스&gt;" class="cls-1" d="M240.46,43.39c-2.14-.13-4.09-.21-4.09-1.66,0-1.25,1.37-1.85,4.08-1.85a16.3,16.3,0,0,1,4.36.52s1.78.65,2.26-.9c0-.08.55-1.8.58-1.87a22.58,22.58,0,0,0-7.27-1.26c-5.71,0-8,3.31-8,5.58,0,3.79,3.18,5,6.82,5.2s5.8.16,5.8,2c0,1.46-1.56,2.09-5,2.09a15.64,15.64,0,0,1-4.77-.83s-1.76-.7-2.26.83l-.62,1.88a17.59,17.59,0,0,0,7.57,1.65c5.94,0,9.09-1.88,9.09-5.91C249,44.11,244.49,43.62,240.46,43.39Z"/><rect id="_패스_19" data-name="&lt;패스&gt;" class="cls-1" x="224.72" y="37.08" width="3.77" height="16.97"/><polygon id="_패스_20" data-name="&lt;패스&gt;" class="cls-1" points="86.42 54.07 101.37 54.07 101.37 50.83 90.19 50.83 90.19 47.2 99.67 47.2 99.67 43.96 90.19 43.96 90.19 40.33 101.37 40.33 101.37 37.09 86.42 37.09 86.42 54.07"/><path id="_컴파운드_패스_5" data-name="&lt;컴파운드 패스&gt;" class="cls-1" d="M218.11,48.09c1.65-.9,2.55-2.55,2.61-5.09-.09-4.11-2.39-5.91-6.49-5.91h-9.75V48.9h0v5.15h3.76V48.9h6.35L216.92,53a2.05,2.05,0,0,0,1.78,1h2.78Zm-4.48-2.43h-5.38V40.32h5.38c1.85,0,3,.74,3.12,2.68C216.67,44.92,215.48,45.66,213.63,45.66Z"/><path id="_패스_21" data-name="&lt;패스&gt;" class="cls-1" d="M119,54.05h2.93v-17h-3.76V49l-7.46-10.69a2.63,2.63,0,0,0-2.37-1.26H105.2v17H109V42.33l7.38,10.37A3.37,3.37,0,0,0,119,54.05Z"/><path class="cls-1" d="M194.93,37.05h-9.76V48.86h0V54h3.76V48.86h6c4.1,0,6.39-1.8,6.48-5.9C201.32,38.86,199,37.05,194.93,37.05Zm-.6,8.57h-5.39V40.29h5.39c1.85,0,3,.73,3.11,2.67S196.18,45.62,194.33,45.62Z"/><path id="_패스_22" data-name="&lt;패스&gt;" class="cls-1" d="M286.84,39.91a13.09,13.09,0,0,1,4.25.83s1.76.81,2.38-.69l.68-1.91v0L294,38a17,17,0,0,0-7.16-1.64h-.07a10.31,10.31,0,0,0-7.38,2.74,8.9,8.9,0,0,0-2.45,6.48,8.91,8.91,0,0,0,2.45,6.48,10.26,10.26,0,0,0,7.38,2.74h.07A17,17,0,0,0,294,53.19l.16-.08v0l-.68-1.9c-.62-1.51-2.38-.7-2.38-.7a13.09,13.09,0,0,1-4.25.83c-3.69,0-5.9-2.13-5.94-5.69S283.15,39.91,286.84,39.91Z"/><polygon id="_패스_23" data-name="&lt;패스&gt;" class="cls-1" points="337.64 37.11 332.36 44.73 327.08 37.11 323.11 37.11 330.48 47.87 330.48 54.09 334.25 54.09 334.25 47.87 341.61 37.11 337.64 37.11"/><rect id="_패스_24" data-name="&lt;패스&gt;" class="cls-1" x="297.62" y="37.11" width="3.77" height="16.99"/><polygon id="_패스_25" data-name="&lt;패스&gt;" class="cls-1" points="304.6 40.35 311.4 40.35 311.4 54.09 315.17 54.09 315.17 40.35 321.96 40.35 321.96 37.11 304.6 37.11 304.6 40.35"/><polygon id="_패스_26" data-name="&lt;패스&gt;" class="cls-1" points="514.46 40.34 514.46 43.97 523.77 43.97 523.77 47.21 514.46 47.21 514.46 50.84 525.47 50.84 525.47 54.08 510.7 54.08 510.7 37.11 525.47 37.11 525.47 40.34 514.46 40.34"/><path id="_패스_27" data-name="&lt;패스&gt;" class="cls-1" d="M542.78,54.08h2.94v-17H542V49l-7.46-10.69a2.63,2.63,0,0,0-2.36-1.26H529v17h3.76V42.36l7.39,10.37A3.34,3.34,0,0,0,542.78,54.08Z"/><polygon id="_패스_28" data-name="&lt;패스&gt;" class="cls-1" points="555.61 54.07 559.37 54.07 559.37 40.32 566.17 40.32 566.17 37.09 548.8 37.09 548.8 40.32 555.61 40.32 555.61 54.07"/><path class="cls-1" d="M476.8,37.08h-9.75V48.89h0v5.17h3.77V48.89h6c4.1,0,6.4-1.8,6.49-5.9C483.2,38.88,480.9,37.08,476.8,37.08Zm-.6,8.57h-5.38V40.31h5.38c1.85,0,3,.74,3.12,2.68C479.24,44.92,478.05,45.65,476.2,45.65Z"/><polygon id="_패스_29" data-name="&lt;패스&gt;" class="cls-1" points="375.03 40.34 375.03 43.97 384.34 43.97 384.34 47.21 375.03 47.21 375.03 50.84 386.03 50.84 386.03 54.08 371.26 54.08 371.26 37.11 386.03 37.11 386.03 40.34 375.03 40.34"/><polygon id="_패스_30" data-name="&lt;패스&gt;" class="cls-1" points="413.49 40.34 413.49 43.97 422.8 43.97 422.8 47.21 413.49 47.21 413.49 50.84 424.49 50.84 424.49 54.08 409.72 54.08 409.72 37.11 424.49 37.11 424.49 40.34 413.49 40.34"/><path id="_컴파운드_패스_6" data-name="&lt;컴파운드 패스&gt;" class="cls-1" d="M454,36.37a10.33,10.33,0,0,0-7.48,2.8A8.84,8.84,0,0,0,444,45.59,8.84,8.84,0,0,0,446.47,52a11.39,11.39,0,0,0,15,0,8.84,8.84,0,0,0,2.46-6.42,8.84,8.84,0,0,0-2.46-6.42A10.33,10.33,0,0,0,454,36.37Zm0,14.91c-3.67,0-5.95-2.18-6-5.69s2.3-5.69,6-5.69,5.95,2.18,6,5.69S457.62,51.28,454,51.28Z"/><path id="_컴파운드_패스_7" data-name="&lt;컴파운드 패스&gt;" class="cls-1" d="M403.19,38.31,397.86,50.4l-5.33-12.1a2.06,2.06,0,0,0-1.87-1.21H388l7.58,17h4.52l7.58-17h-2.64A2,2,0,0,0,403.19,38.31Z"/><path id="_컴파운드_패스_8" data-name="&lt;컴파운드 패스&gt;" class="cls-1" d="M358.46,37.08h-6.81v17h6.81c7,0,10.11-2.77,10.18-8.49S365.45,37.08,358.46,37.08Zm.15,13.75h-3.2V40.32h3.2c4.42,0,6,2,6.06,5.25S363,50.83,358.61,50.83Z"/><polygon id="_패스_31" data-name="&lt;패스&gt;" class="cls-1" points="432.06 50.82 443.07 50.82 443.07 54.06 428.29 54.06 428.29 37.08 432.06 37.08 432.06 50.82"/><path id="_패스_32" data-name="&lt;패스&gt;" class="cls-1" d="M506.93,37.08v17h-3.65V42.18l-4.62,10.64h-4.41l-4.62-10.64V54.06H486v-17h3.71a2.12,2.12,0,0,1,1.94,1.26l4.83,10.86,4.82-10.86a2.12,2.12,0,0,1,1.94-1.26Z"/></g></g></svg>