<svg xmlns="http://www.w3.org/2000/svg" viewBox="0 0 366.01 64.55"><defs><style>.cls-1{fill:#231916;}</style></defs><title>logo-hanyang</title><g id="레이어_2" data-name="레이어 2"><g id="레이어_1-2" data-name="레이어 1"><g id="_그룹_" data-name="&lt;그룹&gt;"><g id="_그룹_2" data-name="&lt;그룹&gt;"><path id="_패스_" data-name="&lt;패스&gt;" class="cls-1" d="M21.57,64.55a21.57,21.57,0,1,1,9.43-41l.61.29-.54.41a23.27,23.27,0,0,0-9.34,17c0,.66-.07,1.21-.07,1.74a23,23,0,0,0,9.41,18.7l.54.4-.61.3A21.65,21.65,0,0,1,21.57,64.55Z"/><path id="_패스_2" data-name="&lt;패스&gt;" class="cls-1" d="M45,64.55A21.56,21.56,0,0,1,23.4,43.32v-.64l.58.26a23.57,23.57,0,0,0,9.29,1.93,23.34,23.34,0,0,0,11.08-2.8A23.09,23.09,0,0,0,56.26,25.28l.1-.62.53.35A21.57,21.57,0,0,1,45,64.55Z"/><path id="_패스_3" data-name="&lt;패스&gt;" class="cls-1" d="M44.56,39.27a23.28,23.28,0,0,0-23-19.59,23.58,23.58,0,0,0-9.3,1.93l-.58.25v-.63a21.57,21.57,0,0,1,43.13.34c0,.49,0,1-.06,1.61a21.4,21.4,0,0,1-9.58,16.36l-.53.35Z"/></g><polygon class="cls-1" points="116.23 28.98 96.98 28.98 96.98 14.52 89.11 14.52 89.11 50 96.98 50 96.98 35.75 116.23 35.75 116.23 50 124.11 50 124.11 14.52 116.23 14.52 116.23 28.98"/><path class="cls-1" d="M363.62,29.68H347.41v6.76h11v6l-.21.09A21.92,21.92,0,0,1,355,43.65a21.35,21.35,0,0,1-5.1.55c-7.74,0-11.83-4.06-11.83-11.73s4.64-12,12.39-12a27.14,27.14,0,0,1,8.9,1.74s3.68,1.68,5-1.46l1.42-4,0-.1-.34-.15a35.53,35.53,0,0,0-15-3.42h-.14c-6.25,0-11.73,2-15.42,5.73-3.38,3.38-5.15,8.1-5.12,13.64,0,12,7.46,19.16,19.94,19.16a35.36,35.36,0,0,0,9.65-1.33c.78-.23,2.43-.84,3.9-1.41A4.34,4.34,0,0,0,366,44.79V32.07A2.39,2.39,0,0,0,363.62,29.68Z"/><polygon class="cls-1" points="241.55 14.52 231.41 30.26 221.27 14.52 212.68 14.52 227.47 37.02 227.47 50 235.35 50 235.35 37.02 250.14 14.52 241.55 14.52"/><path class="cls-1" d="M200.54,39.85l-15.83-22.7a5.5,5.5,0,0,0-4.94-2.63h-6.6V50h7.62V25.18l15.7,22A7,7,0,0,0,202,50h6.14V14.52h-7.63Z"/><path class="cls-1" d="M316.69,39.85l-15.84-22.7a5.5,5.5,0,0,0-4.94-2.63h-6.59V50h7.62V25.18l15.69,22A7,7,0,0,0,318.18,50h6.13V14.52h-7.62Z"/><path class="cls-1" d="M152.25,14.52H144.2L129,50h4.33a5.93,5.93,0,0,0,5.46-3.61l1.83-4.33H156.7l1.83,4.33A5.93,5.93,0,0,0,164,50h4.33L153.08,14.52Zm-8.8,20.77L148.64,23l5.19,12.26Z"/><path class="cls-1" d="M269,14.52h-8L245.68,50H250a5.93,5.93,0,0,0,5.46-3.61l1.83-4.33h16.12l1.83,4.33A5.93,5.93,0,0,0,280.71,50H285L269.8,14.52Zm-8.8,20.77L265.36,23l5.19,12.26Z"/></g></g></g></svg>